<?xml version="1.0" encoding="UTF-8" standalone="no"?>
<!DOCTYPE svg PUBLIC "-//W3C//DTD SVG 1.1//EN"
 "http://www.w3.org/Graphics/SVG/1.1/DTD/svg11.dtd">
<!-- Generated by graphviz version 16.0.0 (20260814.1018)
 -->
<!-- Title: factor_lifecycles Pages: 1 -->
<svg width="565pt" height="285pt"
 viewBox="0.00 0.00 565.00 285.00" xmlns="http://www.w3.org/2000/svg" xmlns:xlink="http://www.w3.org/1999/xlink">
<g id="graph0" class="graph" transform="scale(1 1) rotate(0) translate(4 280.5)">
<title>factor_lifecycles</title>
<!-- start_0&#45;&gt;hold_0 -->
<g id="edge1" class="edge">
<title>start_0&#45;&gt;hold_0</title>
<path fill="none" stroke="#64748b" d="M54.41,-258.25C58.11,-258.25 61.94,-258.25 65.72,-258.25"/>
<polygon fill="#64748b" stroke="#64748b" points="65.69,-259.65 69.69,-258.25 65.69,-256.85 65.69,-259.65"/>
<text xml:space="preserve" text-anchor="middle" x="60.07" y="-249.7" font-family=" sans" font-size="9.00">unchanged</text>
</g>
<!-- curve_0_0&#45;&gt;hold_0 -->
<g id="edge18" class="edge">
<title>curve_0_0&#45;&gt;hold_0</title>
<path fill="none" stroke="#64748b" d="M98.43,-258.25C98.43,-258.25 98.43,-258.25 98.43,-258.25"/>
</g>
<!-- curve_0_0&#45;&gt;curve_0_1 -->
<g id="edge2" class="edge">
<title>curve_0_0&#45;&gt;curve_0_1</title>
<path fill="none" stroke="#2563eb" d="M101.71,-258.25C105.41,-258.25 111.56,-258.25 116.64,-258.25"/>
<polygon fill="#2563eb" stroke="#2563eb" points="116.39,-259.65 120.39,-258.25 116.39,-256.85 116.39,-259.65"/>
</g>
<!-- curve_0_1&#45;&gt;curve_0_2 -->
<g id="edge3" class="edge">
<title>curve_0_1&#45;&gt;curve_0_2</title>
<path fill="none" stroke="#2563eb" d="M128.5,-258.25C132.19,-258.25 138.34,-258.25 143.42,-258.25"/>
<polygon fill="#2563eb" stroke="#2563eb" points="143.18,-259.65 147.18,-258.25 143.18,-256.85 143.18,-259.65"/>
</g>
<!-- curve_0_2&#45;&gt;curve_0_3 -->
<g id="edge4" class="edge">
<title>curve_0_2&#45;&gt;curve_0_3</title>
<path fill="none" stroke="#2563eb" d="M155.28,-258.25C158.98,-258.25 165.13,-258.25 170.21,-258.25"/>
<polygon fill="#2563eb" stroke="#2563eb" points="169.96,-259.65 173.96,-258.25 169.96,-256.85 169.96,-259.65"/>
</g>
<!-- curve_0_3&#45;&gt;curve_0_4 -->
<g id="edge5" class="edge">
<title>curve_0_3&#45;&gt;curve_0_4</title>
<path fill="none" stroke="#2563eb" d="M182.07,-258.25C185.77,-258.25 191.91,-258.25 197,-258.25"/>
<polygon fill="#2563eb" stroke="#2563eb" points="196.75,-259.65 200.75,-258.25 196.75,-256.85 196.75,-259.65"/>
</g>
<!-- curve_0_4&#45;&gt;curve_0_5 -->
<g id="edge6" class="edge">
<title>curve_0_4&#45;&gt;curve_0_5</title>
<path fill="none" stroke="#2563eb" d="M208.86,-258.25C212.55,-258.25 218.7,-258.25 223.78,-258.25"/>
<polygon fill="#2563eb" stroke="#2563eb" points="223.53,-259.65 227.53,-258.25 223.53,-256.85 223.53,-259.65"/>
</g>
<!-- curve_0_5&#45;&gt;curve_0_6 -->
<g id="edge7" class="edge">
<title>curve_0_5&#45;&gt;curve_0_6</title>
<path fill="none" stroke="#2563eb" d="M235.64,-258.25C239.34,-258.25 245.49,-258.25 250.57,-258.25"/>
<polygon fill="#2563eb" stroke="#2563eb" points="250.32,-259.65 254.32,-258.25 250.32,-256.85 250.32,-259.65"/>
</g>
<!-- curve_0_6&#45;&gt;curve_0_7 -->
<g id="edge8" class="edge">
<title>curve_0_6&#45;&gt;curve_0_7</title>
<path fill="none" stroke="#2563eb" d="M262.43,-258.25C266.12,-258.25 272.27,-258.25 277.35,-258.25"/>
<polygon fill="#2563eb" stroke="#2563eb" points="277.1,-259.65 281.1,-258.25 277.1,-256.85 277.1,-259.65"/>
</g>
<!-- curve_0_7&#45;&gt;curve_0_8 -->
<g id="edge9" class="edge">
<title>curve_0_7&#45;&gt;curve_0_8</title>
<path fill="none" stroke="#2563eb" d="M289.21,-258.25C292.91,-258.25 299.06,-258.25 304.14,-258.25"/>
<polygon fill="#2563eb" stroke="#2563eb" points="303.89,-259.65 307.89,-258.25 303.89,-256.85 303.89,-259.65"/>
</g>
<!-- curve_0_8&#45;&gt;curve_0_9 -->
<g id="edge10" class="edge">
<title>curve_0_8&#45;&gt;curve_0_9</title>
<path fill="none" stroke="#2563eb" d="M316,-258.25C319.69,-258.25 325.84,-258.25 330.92,-258.25"/>
<polygon fill="#2563eb" stroke="#2563eb" points="330.68,-259.65 334.68,-258.25 330.68,-256.85 330.68,-259.65"/>
</g>
<!-- curve_0_9&#45;&gt;curve_0_10 -->
<g id="edge11" class="edge">
<title>curve_0_9&#45;&gt;curve_0_10</title>
<path fill="none" stroke="#2563eb" d="M342.78,-258.25C346.48,-258.25 352.63,-258.25 357.71,-258.25"/>
<polygon fill="#2563eb" stroke="#2563eb" points="357.46,-259.65 361.46,-258.25 357.46,-256.85 357.46,-259.65"/>
</g>
<!-- curve_0_10&#45;&gt;curve_0_11 -->
<g id="edge12" class="edge">
<title>curve_0_10&#45;&gt;curve_0_11</title>
<path fill="none" stroke="#2563eb" d="M369.57,-258.25C373.27,-258.25 379.41,-258.25 384.5,-258.25"/>
<polygon fill="#2563eb" stroke="#2563eb" points="384.25,-259.65 388.25,-258.25 384.25,-256.85 384.25,-259.65"/>
</g>
<!-- curve_0_11&#45;&gt;curve_0_12 -->
<g id="edge13" class="edge">
<title>curve_0_11&#45;&gt;curve_0_12</title>
<path fill="none" stroke="#2563eb" d="M396.36,-258.25C400.05,-258.25 406.2,-258.25 411.28,-258.25"/>
<polygon fill="#2563eb" stroke="#2563eb" points="411.03,-259.65 415.03,-258.25 411.03,-256.85 411.03,-259.65"/>
</g>
<!-- curve_0_12&#45;&gt;curve_0_13 -->
<g id="edge14" class="edge">
<title>curve_0_12&#45;&gt;curve_0_13</title>
<path fill="none" stroke="#2563eb" d="M423.14,-258.25C426.84,-258.25 432.99,-258.25 438.07,-258.25"/>
<polygon fill="#2563eb" stroke="#2563eb" points="437.82,-259.65 441.82,-258.25 437.82,-256.85 437.82,-259.65"/>
</g>
<!-- curve_0_13&#45;&gt;curve_0_14 -->
<g id="edge15" class="edge">
<title>curve_0_13&#45;&gt;curve_0_14</title>
<path fill="none" stroke="#2563eb" d="M449.93,-258.25C453.62,-258.25 459.77,-258.25 464.85,-258.25"/>
<polygon fill="#2563eb" stroke="#2563eb" points="464.6,-259.65 468.6,-258.25 464.6,-256.85 464.6,-259.65"/>
</g>
<!-- curve_0_14&#45;&gt;curve_0_15 -->
<g id="edge16" class="edge">
<title>curve_0_14&#45;&gt;curve_0_15</title>
<path fill="none" stroke="#2563eb" d="M476.71,-258.25C480.41,-258.25 486.56,-258.25 491.64,-258.25"/>
<polygon fill="#2563eb" stroke="#2563eb" points="491.39,-259.65 495.39,-258.25 491.39,-256.85 491.39,-259.65"/>
</g>
<!-- curve_0_15&#45;&gt;curve_0_16 -->
<g id="edge17" class="edge">
<title>curve_0_15&#45;&gt;curve_0_16</title>
<path fill="none" stroke="#2563eb" d="M500.55,-255.22C503.28,-230.8 521.64,-66.3 526.05,-26.78"/>
<polygon fill="#2563eb" stroke="#2563eb" points="527.41,-27.18 526.46,-23.05 524.63,-26.87 527.41,-27.18"/>
</g>
<!-- curve_0_16&#45;&gt;end_0 -->
<g id="edge19" class="edge">
<title>curve_0_16&#45;&gt;end_0</title>
<path fill="none" stroke="#64748b" d="M527,-18.25C527,-18.25 527,-18.25 527,-18.25"/>
</g>
<!-- start_0 -->
<g id="node1" class="node">
<title>start_0</title>
<path fill="#dbeafe" stroke="#334155" d="M42,-276.5C42,-276.5 12,-276.5 12,-276.5 6,-276.5 0,-270.5 0,-264.5 0,-264.5 0,-252 0,-252 0,-246 6,-240 12,-240 12,-240 42,-240 42,-240 48,-240 54,-246 54,-252 54,-252 54,-264.5 54,-264.5 54,-270.5 48,-276.5 42,-276.5"/>
<text xml:space="preserve" text-anchor="middle" x="27" y="-263" font-family=" sans" font-size="10.00" fill="#0f172a">impact</text>
<text xml:space="preserve" text-anchor="middle" x="27" y="-248.75" font-family=" sans" font-size="10.00" fill="#0f172a">100%</text>
</g>
<!-- hold_0 -->
<g id="node2" class="node">
<title>hold_0</title>
<path fill="#e0f2fe" stroke="#334155" d="M113.43,-276.5C113.43,-276.5 83.43,-276.5 83.43,-276.5 77.43,-276.5 71.43,-270.5 71.43,-264.5 71.43,-264.5 71.43,-252 71.43,-252 71.43,-246 77.43,-240 83.43,-240 83.43,-240 113.43,-240 113.43,-240 119.43,-240 125.43,-246 125.43,-252 125.43,-252 125.43,-264.5 125.43,-264.5 125.43,-270.5 119.43,-276.5 113.43,-276.5"/>
<text xml:space="preserve" text-anchor="middle" x="98.43" y="-263" font-family=" sans" font-size="10.00" fill="#0f172a">hold</text>
<text xml:space="preserve" text-anchor="middle" x="98.43" y="-248.75" font-family=" sans" font-size="10.00" fill="#0f172a">48 h</text>
</g>
<!-- end_0 -->
<g id="node3" class="node">
<title>end_0</title>
<path fill="#dcfce7" stroke="#334155" d="M545.12,-36.5C545.12,-36.5 508.88,-36.5 508.88,-36.5 502.88,-36.5 496.88,-30.5 496.88,-24.5 496.88,-24.5 496.88,-12 496.88,-12 496.88,-6 502.88,0 508.88,0 508.88,0 545.12,0 545.12,0 551.12,0 557.12,-6 557.12,-12 557.12,-12 557.12,-24.5 557.12,-24.5 557.12,-30.5 551.12,-36.5 545.12,-36.5"/>
<text xml:space="preserve" text-anchor="middle" x="527" y="-23" font-family=" sans" font-size="10.00" fill="#0f172a">irrelevant</text>
<text xml:space="preserve" text-anchor="middle" x="527" y="-8.75" font-family=" sans" font-size="10.00" fill="#0f172a">336 h</text>
</g>
<!-- curve_0_0 -->
<g id="node4" class="node">
<title>curve_0_0</title>
<ellipse fill="#334155" stroke="#334155" cx="98.43" cy="-258.25" rx="2.88" ry="2.88"/>
</g>
<!-- curve_0_1 -->
<g id="node5" class="node">
<title>curve_0_1</title>
<ellipse fill="#334155" stroke="#334155" cx="125.21" cy="-258.25" rx="2.88" ry="2.88"/>
</g>
<!-- curve_0_2 -->
<g id="node6" class="node">
<title>curve_0_2</title>
<ellipse fill="#334155" stroke="#334155" cx="152" cy="-258.25" rx="2.88" ry="2.88"/>
</g>
<!-- curve_0_3 -->
<g id="node7" class="node">
<title>curve_0_3</title>
<ellipse fill="#334155" stroke="#334155" cx="178.79" cy="-258.25" rx="2.88" ry="2.88"/>
</g>
<!-- curve_0_4 -->
<g id="node8" class="node">
<title>curve_0_4</title>
<ellipse fill="#334155" stroke="#334155" cx="205.57" cy="-258.25" rx="2.88" ry="2.88"/>
</g>
<!-- curve_0_5 -->
<g id="node9" class="node">
<title>curve_0_5</title>
<ellipse fill="#334155" stroke="#334155" cx="232.36" cy="-258.25" rx="2.88" ry="2.88"/>
</g>
<!-- curve_0_6 -->
<g id="node10" class="node">
<title>curve_0_6</title>
<ellipse fill="#334155" stroke="#334155" cx="259.14" cy="-258.25" rx="2.88" ry="2.88"/>
</g>
<!-- curve_0_7 -->
<g id="node11" class="node">
<title>curve_0_7</title>
<ellipse fill="#334155" stroke="#334155" cx="285.93" cy="-258.25" rx="2.88" ry="2.88"/>
</g>
<!-- curve_0_8 -->
<g id="node12" class="node">
<title>curve_0_8</title>
<ellipse fill="#334155" stroke="#334155" cx="312.71" cy="-258.25" rx="2.88" ry="2.88"/>
</g>
<!-- curve_0_9 -->
<g id="node13" class="node">
<title>curve_0_9</title>
<ellipse fill="#334155" stroke="#334155" cx="339.5" cy="-258.25" rx="2.88" ry="2.88"/>
</g>
<!-- curve_0_10 -->
<g id="node14" class="node">
<title>curve_0_10</title>
<ellipse fill="#334155" stroke="#334155" cx="366.29" cy="-258.25" rx="2.88" ry="2.88"/>
</g>
<!-- curve_0_11 -->
<g id="node15" class="node">
<title>curve_0_11</title>
<ellipse fill="#334155" stroke="#334155" cx="393.07" cy="-258.25" rx="2.88" ry="2.88"/>
</g>
<!-- curve_0_12 -->
<g id="node16" class="node">
<title>curve_0_12</title>
<ellipse fill="#334155" stroke="#334155" cx="419.86" cy="-258.25" rx="2.88" ry="2.88"/>
</g>
<!-- curve_0_13 -->
<g id="node17" class="node">
<title>curve_0_13</title>
<ellipse fill="#334155" stroke="#334155" cx="446.64" cy="-258.25" rx="2.88" ry="2.88"/>
</g>
<!-- curve_0_14 -->
<g id="node18" class="node">
<title>curve_0_14</title>
<ellipse fill="#334155" stroke="#334155" cx="473.43" cy="-258.25" rx="2.88" ry="2.88"/>
</g>
<!-- curve_0_15 -->
<g id="node19" class="node">
<title>curve_0_15</title>
<ellipse fill="#334155" stroke="#334155" cx="500.21" cy="-258.25" rx="2.88" ry="2.88"/>
</g>
<!-- curve_0_16 -->
<g id="node20" class="node">
<title>curve_0_16</title>
<ellipse fill="#334155" stroke="#334155" cx="527" cy="-18.25" rx="2.88" ry="2.88"/>
</g>
</g>
</svg>
