<?xml version="1.0" encoding="UTF-8" standalone="no"?>
<!DOCTYPE svg PUBLIC "-//W3C//DTD SVG 1.1//EN"
 "http://www.w3.org/Graphics/SVG/1.1/DTD/svg11.dtd">
<!-- Generated by graphviz version 16.0.0 (20260814.1018)
 -->
<!-- Title: duty_work_served_lifecycle Pages: 1 -->
<svg width="602pt" height="83pt"
 viewBox="4.00 4.00 598.00 80.00" xmlns="http://www.w3.org/2000/svg" xmlns:xlink="http://www.w3.org/1999/xlink">
<g id="graph0" class="graph" transform="scale(1 1) rotate(0) translate(10.8 72.45)">
<title>duty_work_served_lifecycle</title>
<!-- start -->
<g id="node1" class="node">
<title>start</title>
<path fill="#dbeafe" stroke="#334155" d="M77.79,-53.77C77.79,-53.77 12,-53.77 12,-53.77 6,-53.77 0,-47.77 0,-41.77 0,-41.77 0,-19.88 0,-19.88 0,-13.88 6,-7.88 12,-7.88 12,-7.88 77.79,-7.88 77.79,-7.88 83.79,-7.88 89.79,-13.88 89.79,-19.88 89.79,-19.88 89.79,-41.77 89.79,-41.77 89.79,-47.77 83.79,-53.77 77.79,-53.77"/>
<text xml:space="preserve" text-anchor="middle" x="44.89" y="-36.12" font-family=" sans" font-size="11.00" fill="#0f172a">impact starts</text>
<text xml:space="preserve" text-anchor="middle" x="44.89" y="-20.38" font-family=" sans" font-size="11.00" fill="#0f172a">100%</text>
</g>
<!-- hold -->
<g id="node2" class="node">
<title>hold</title>
<path fill="#e0f2fe" stroke="#334155" d="M246.08,-53.77C246.08,-53.77 174.29,-53.77 174.29,-53.77 168.29,-53.77 162.29,-47.77 162.29,-41.77 162.29,-41.77 162.29,-19.88 162.29,-19.88 162.29,-13.88 168.29,-7.88 174.29,-7.88 174.29,-7.88 246.08,-7.88 246.08,-7.88 252.08,-7.88 258.08,-13.88 258.08,-19.88 258.08,-19.88 258.08,-41.77 258.08,-41.77 258.08,-47.77 252.08,-53.77 246.08,-53.77"/>
<text xml:space="preserve" text-anchor="middle" x="210.19" y="-36.12" font-family=" sans" font-size="11.00" fill="#0f172a">hold_duration</text>
<text xml:space="preserve" text-anchor="middle" x="210.19" y="-20.38" font-family=" sans" font-size="11.00" fill="#0f172a">48 hours</text>
</g>
<!-- start&#45;&gt;hold -->
<g id="edge1" class="edge">
<title>start&#45;&gt;hold</title>
<path fill="none" stroke="#64748b" stroke-width="1.5" d="M90.08,-30.82C109.33,-30.82 132.13,-30.82 152.59,-30.82"/>
<polygon fill="#64748b" stroke="#64748b" stroke-width="1.5" points="152.54,-33.28 159.54,-30.83 152.54,-28.38 152.54,-33.28"/>
<text xml:space="preserve" text-anchor="middle" x="126.04" y="-35.03" font-family=" sans" font-size="9.00" fill="#475569">unchanged</text>
</g>
<!-- decay -->
<g id="node3" class="node">
<title>decay</title>
<path fill="#fef3c7" stroke="#334155" d="M400.87,-53.77C400.87,-53.77 335.83,-53.77 335.83,-53.77 329.83,-53.77 323.83,-47.77 323.83,-41.77 323.83,-41.77 323.83,-19.88 323.83,-19.88 323.83,-13.88 329.83,-7.88 335.83,-7.88 335.83,-7.88 400.87,-7.88 400.87,-7.88 406.87,-7.88 412.87,-13.88 412.87,-19.88 412.87,-19.88 412.87,-41.77 412.87,-41.77 412.87,-47.77 406.87,-53.77 400.87,-53.77"/>
<text xml:space="preserve" text-anchor="middle" x="368.35" y="-36.12" font-family=" sans" font-size="11.00" fill="#0f172a">front&#45;loaded</text>
<text xml:space="preserve" text-anchor="middle" x="368.35" y="-20.38" font-family=" sans" font-size="11.00" fill="#0f172a">decay profile</text>
</g>
<!-- hold&#45;&gt;decay -->
<g id="edge2" class="edge">
<title>hold&#45;&gt;decay</title>
<path fill="none" stroke="#64748b" stroke-width="1.5" d="M258.46,-30.82C276.05,-30.82 296.11,-30.82 314.19,-30.82"/>
<polygon fill="#64748b" stroke="#64748b" stroke-width="1.5" points="314.16,-33.28 321.16,-30.83 314.16,-28.38 314.16,-33.28"/>
<text xml:space="preserve" text-anchor="middle" x="290.95" y="-35.03" font-family=" sans" font-size="9.00" fill="#475569">transition</text>
</g>
<!-- end -->
<g id="node4" class="node">
<title>end</title>
<path fill="#dcfce7" stroke="#334155" d="M568.41,-61.65C568.41,-61.65 491.37,-61.65 491.37,-61.65 485.37,-61.65 479.37,-55.65 479.37,-49.65 479.37,-49.65 479.37,-12 479.37,-12 479.37,-6 485.37,0 491.37,0 491.37,0 568.41,0 568.41,0 574.41,0 580.41,-6 580.41,-12 580.41,-12 580.41,-49.65 580.41,-49.65 580.41,-55.65 574.41,-61.65 568.41,-61.65"/>
<text xml:space="preserve" text-anchor="middle" x="529.89" y="-44" font-family=" sans" font-size="11.00" fill="#0f172a">irrelevant_after</text>
<text xml:space="preserve" text-anchor="middle" x="529.89" y="-28.25" font-family=" sans" font-size="11.00" fill="#0f172a">336 hours</text>
<text xml:space="preserve" text-anchor="middle" x="529.89" y="-12.5" font-family=" sans" font-size="11.00" fill="#0f172a">impact = 0</text>
</g>
<!-- decay&#45;&gt;end -->
<g id="edge3" class="edge">
<title>decay&#45;&gt;end</title>
<path fill="none" stroke="#64748b" stroke-width="1.5" d="M413.37,-30.82C430.88,-30.82 451.3,-30.82 470.06,-30.82"/>
<polygon fill="#64748b" stroke="#64748b" stroke-width="1.5" points="469.84,-33.28 476.84,-30.83 469.84,-28.38 469.84,-33.28"/>
<text xml:space="preserve" text-anchor="middle" x="446.12" y="-35.03" font-family=" sans" font-size="9.00" fill="#475569">irrelevant</text>
</g>
</g>
</svg>
